<svg xmlns="http://www.w3.org/2000/svg" width="41" height="46" fill="none" viewBox="0 0 41 46">
  <path fill="url(#a)" d="m29.433 45.889 11.461-2.894S35.96 9.101 35.928 8.868a.442.442 0 0 0-.397-.375c-.165-.014-3.392-.064-3.392-.064s-1.967-1.94-2.706-2.675v40.135Z"/>
  <path fill="url(#b)" d="m28.186 5.367-1.355.426a9.747 9.747 0 0 0-.65-1.62c-.96-1.862-2.367-2.847-4.067-2.85h-.007c-.118 0-.235.012-.353.022-.05-.061-.1-.122-.153-.18C20.86.36 19.91-.032 18.773.002c-2.196.064-4.383 1.675-6.156 4.537-1.247 2.013-2.197 4.543-2.466 6.501l-4.323 1.361c-1.273.406-1.313.446-1.48 1.665-.124.92-3.453 27.08-3.453 27.08L28.52 46V5.31a1.59 1.59 0 0 0-.335.057Zm-6.38 2.007-4.658 1.465c.45-1.751 1.304-3.495 2.353-4.639.39-.425.935-.9 1.581-1.17.608 1.288.74 3.11.725 4.344Zm-2.99-5.887c.515-.012.949.103 1.32.351-.594.313-1.167.763-1.706 1.35-1.394 1.52-2.463 3.88-2.89 6.156-1.329.418-2.629.828-3.826 1.203.756-3.583 3.712-8.96 7.101-9.06ZM14.543 21.9c.148 2.388 6.331 2.91 6.678 8.502.273 4.4-2.297 7.41-6 7.648-4.446.285-6.893-2.38-6.893-2.38l.942-4.072s2.463 1.888 4.435 1.762c1.288-.083 1.748-1.147 1.701-1.9-.193-3.115-5.228-2.93-5.546-8.049-.268-4.306 2.516-8.67 8.659-9.064 2.366-.152 3.579.462 3.579.462l-1.405 5.34s-1.567-.725-3.424-.606c-2.725.175-2.754 1.92-2.726 2.357Zm8.723-14.986c-.017-1.13-.149-2.7-.667-4.059 1.666.32 2.486 2.236 2.833 3.378-.642.2-1.374.43-2.166.681Z"/>
  <defs>
    <linearGradient id="a" x1="40.408" x2="13.138" y1="-2.111" y2="11.131" gradientUnits="userSpaceOnUse">
      <stop stop-color="#0000FE"/>
      <stop offset="1" stop-color="#01FFFF"/>
    </linearGradient>
    <linearGradient id="b" x1="27.349" x2="-12.413" y1="-9.014" y2="31.594" gradientUnits="userSpaceOnUse">
      <stop stop-color="#0000FE"/>
      <stop offset="1" stop-color="#01FFFF"/>
    </linearGradient>
  </defs>
</svg>
